<?xml version="1.0" encoding="UTF-8"?>
<svg version="1.1" xmlns="http://www.w3.org/2000/svg" width="511" height="458">
<path d="M0 0 C14.52 0 29.04 0 44 0 C42.85072802 24.13471167 42.85072802 24.13471167 41.80859375 35.51953125 C41.69902847 36.75499191 41.5894632 37.99045258 41.47657776 39.26335144 C41.1342306 43.11343881 40.78600256 46.96296548 40.4375 50.8125 C40.2002897 53.46281264 39.96444658 56.11324479 39.72851562 58.76367188 C39.15685362 65.1761915 38.5803961 71.5882653 38 78 C43.28031524 75.90977803 48.54663149 73.81616601 53.72265625 71.4765625 C55.24922852 70.79062012 55.24922852 70.79062012 56.80664062 70.09082031 C57.88107422 69.60709961 58.95550781 69.12337891 60.0625 68.625 C70.26487885 64.06593811 80.49930033 59.58699131 90.77682495 55.19989014 C92.25560963 54.56805371 93.73358213 53.9343129 95.21072388 53.29864502 C97.28403137 52.40716877 99.36026064 51.52289359 101.4375 50.640625 C102.63246094 50.13047852 103.82742187 49.62033203 105.05859375 49.09472656 C108 48 108 48 111 48 C112.41628739 52.53173636 113.82167806 57.06666354 115.2175293 61.60473633 C115.69281431 63.14469844 116.1709482 64.68378454 116.65209961 66.22192383 C121.56987459 81.95573974 121.56987459 81.95573974 122 90 C121.2150415 90.15968262 120.43008301 90.31936523 119.62133789 90.48388672 C101.85279283 94.12158181 84.18174886 98.06969284 66.5625 102.375 C65.64888702 102.59750427 64.73527405 102.82000854 63.79397583 103.04925537 C61.19643323 103.68307063 58.59993808 104.32096527 56.00390625 104.9609375 C55.22204956 105.152323 54.44019287 105.3437085 53.63464355 105.54089355 C49.71792458 106.48623395 49.71792458 106.48623395 46 108 C49.88932657 112.5765384 53.92401807 117.00095968 58.04345703 121.36987305 C63.54810874 127.20838459 68.83777052 133.10700662 73.8515625 139.37890625 C76.9789494 143.19431827 80.31489946 146.80603048 83.65234375 150.4375 C86.8298161 153.90575601 89.91659054 157.44831574 93 161 C94.3119514 162.50047985 95.62444233 164.00048814 96.9375 165.5 C97.95833333 166.66666667 98.97916667 167.83333333 100 169 C98.69600645 171.97654144 97.47792222 173.70233028 94.8671875 175.62890625 C93.91622192 176.33793091 93.91622192 176.33793091 92.94604492 177.0612793 C92.2626001 177.55668213 91.57915527 178.05208496 90.875 178.5625 C90.17157471 179.08046143 89.46814941 179.59842285 88.7434082 180.13208008 C83.60906709 183.88898451 78.41556578 187.56236184 73.1875 191.1875 C72.51251465 191.65679932 71.8375293 192.12609863 71.14208984 192.60961914 C68.44863416 194.45307112 66.11287043 195.96237652 63 197 C60.17990241 193.62843536 57.89444165 190.26732177 55.78515625 186.4140625 C55.18775635 185.32963867 54.59035645 184.24521484 53.97485352 183.12792969 C53.34377686 181.97196289 52.7127002 180.81599609 52.0625 179.625 C50.72073409 177.18380209 49.37580342 174.74435093 48.03125 172.3046875 C47.69319839 171.69016724 47.35514679 171.07564697 47.0068512 170.44250488 C43.74329152 164.51585352 40.407915 158.63078293 37.0625 152.75 C32.71155726 145.10097423 28.50612852 137.39952238 24.48828125 129.5703125 C23.25601169 126.89886395 23.25601169 126.89886395 21 126 C20.73703125 126.87011719 20.4740625 127.74023438 20.203125 128.63671875 C19.00376329 131.98947989 17.55863022 134.74962405 15.75 137.8125 C15.0286934 139.05005091 14.30875456 140.28839956 13.58984375 141.52734375 C13.18362793 142.22585449 12.77741211 142.92436523 12.35888672 143.64404297 C9.63607456 148.36469286 6.97700912 153.12128181 4.3125 157.875 C3.41990479 159.46223877 3.41990479 159.46223877 2.50927734 161.08154297 C-0.6096025 166.64781342 -3.67276009 172.23671592 -6.65234375 177.87890625 C-7.23604736 178.97928223 -7.81975098 180.0796582 -8.42114258 181.21337891 C-9.5363946 183.32371251 -10.64210157 185.43912488 -11.73706055 187.56005859 C-12.48983276 188.9824585 -12.48983276 188.9824585 -13.2578125 190.43359375 C-13.6923877 191.26947021 -14.12696289 192.10534668 -14.57470703 192.96655273 C-16.16854735 195.24046436 -17.44254667 196.00057865 -20 197 C-28.97070368 190.64880033 -37.85522405 184.1887892 -46.6887207 177.64794922 C-47.46562256 177.07318848 -48.24252441 176.49842773 -49.04296875 175.90625 C-49.73414795 175.39384766 -50.42532715 174.88144531 -51.13745117 174.35351562 C-52.73023555 173.19603803 -54.36174464 172.09217024 -56 171 C-54.70176525 167.18437605 -53.25033142 164.92909121 -50.3125 162.1875 C-47.00780006 159.00717049 -43.95965874 155.73080436 -40.97265625 152.25390625 C-39.0356018 150.04067771 -37.04946819 147.87861109 -35.04907227 145.72265625 C-31.13392658 141.50211175 -27.34051691 137.25508254 -23.75 132.75 C-19.14771172 127.01600149 -14.12676267 121.71010908 -9.05175781 116.39355469 C-8.4275293 115.73774414 -7.80330078 115.08193359 -7.16015625 114.40625 C-6.59949463 113.82166016 -6.03883301 113.23707031 -5.46118164 112.63476562 C-3.80224132 110.85602042 -3.80224132 110.85602042 -2 108 C-6.50365925 106.68534358 -11.00261099 105.48853438 -15.57446289 104.42773438 C-17.46661278 103.98717712 -17.46661278 103.98717712 -19.39698792 103.53771973 C-20.06103701 103.38394363 -20.7250861 103.23016754 -21.40925789 103.07173157 C-23.50800048 102.58556259 -25.60617195 102.09699495 -27.70420837 101.60778809 C-33.66473476 100.21839144 -39.62624293 98.83323174 -45.58813477 97.44970703 C-49.24720349 96.60040468 -52.90561675 95.74832486 -56.56365776 94.89460754 C-57.95119534 94.57139508 -59.3389857 94.24926567 -60.72703743 93.92826843 C-62.67027012 93.47885958 -64.61261923 93.02563534 -66.55493164 92.57226562 C-68.20870567 92.18826599 -68.20870567 92.18826599 -69.89588928 91.79650879 C-72.98919252 91.00277318 -75.98402383 90.04713692 -79 89 C-76.62751552 80.04631664 -73.98916835 71.17849975 -71.3125 62.3125 C-70.89244817 60.91735683 -70.47252546 59.52217477 -70.05273438 58.12695312 C-69.03664068 54.75085365 -68.01881375 51.37527978 -67 48 C-61.88185935 48.68831738 -57.4210204 50.82001544 -52.73046875 52.8671875 C-51.81783768 53.261409 -50.9052066 53.65563049 -49.96492004 54.0617981 C-48.02305255 54.90183397 -46.0822149 55.74425386 -44.14233398 56.58886719 C-41.26589388 57.84087797 -38.38623175 59.08519224 -35.50585938 60.328125 C-21.5795614 66.35550511 -7.7717199 72.62810761 6 79 C5.92483154 78.17251755 5.84966309 77.3450351 5.7722168 76.49247742 C5.06093032 68.65263404 4.35440897 60.81237846 3.65309143 52.97163677 C3.29246788 48.94170896 2.93007406 44.91195748 2.56347656 40.88256836 C2.20904052 36.98609907 1.859461 33.08922051 1.51309204 29.19202614 C1.38083907 27.71331378 1.2469055 26.23475064 1.11117554 24.75635338 C0.91977568 22.66827497 0.73463783 20.5797212 0.55078125 18.4909668 C0.44419189 17.30738083 0.33760254 16.12379486 0.2277832 14.90434265 C-0.06160326 9.94408264 0 4.96869439 0 0 Z " fill="#F7F7F7" transform="translate(122,113)"/>
<path d="M0 0 C1.64510941 0.00015915 3.29022379 0.00585551 4.93530273 0.01586914 C6.23164894 0.01799156 6.23164894 0.01799156 7.55418396 0.02015686 C10.32578941 0.025773 13.09731528 0.0383282 15.86889648 0.05102539 C17.74324428 0.05603831 19.61759334 0.06060158 21.49194336 0.06469727 C26.09679192 0.07574767 30.70158069 0.09302309 35.30639648 0.11352539 C36.66757986 4.19707552 35.18291889 6.71841101 33.65014648 10.53149414 C33.35666824 11.28393402 33.06319 12.0363739 32.76081848 12.81161499 C32.12101452 14.44925074 31.47697344 16.08523584 30.82925415 17.71975708 C29.07837804 22.13824184 27.35702775 26.56825144 25.63061523 30.99633789 C25.27178757 31.91397415 24.9129599 32.83161041 24.54325867 33.77705383 C21.12396741 42.53627642 17.83220944 51.34102928 14.55639648 60.1546936 C9.50542457 73.73888139 4.30699395 87.24037321 -1.13574219 100.67260742 C-5.67135211 111.92503438 -9.9231924 123.27823399 -14.16085815 134.6456604 C-18.29108624 145.72483743 -22.46500649 156.78311949 -26.75610352 167.80102539 C-31.04533936 178.82037069 -35.26700255 189.86348792 -39.44360352 200.92602539 C-40.62581191 204.05626518 -41.8081135 207.18646976 -42.99047852 210.31665039 C-43.2899791 211.10957489 -43.58947968 211.90249939 -43.89805603 212.7194519 C-47.48387549 222.20980282 -51.08509951 231.69427864 -54.69360352 241.17602539 C-55.02668518 242.05150024 -55.35976685 242.9269751 -55.70294189 243.82897949 C-59.30464666 253.29101491 -62.92748412 262.74420671 -66.60766602 272.17602539 C-66.92282166 272.98398056 -67.23797729 273.79193573 -67.56268311 274.62437439 C-69.03777886 278.40331901 -70.51673285 282.18068577 -72.00219727 285.95556641 C-75.01298194 293.6305066 -77.86657908 301.3419945 -80.58334351 309.12600708 C-82.57489751 314.82075804 -84.71044068 320.44640111 -86.94360352 326.05102539 C-87.70985971 327.99348485 -88.47545651 329.93620452 -89.24047852 331.87915039 C-89.833125 333.38251953 -89.833125 333.38251953 -90.43774414 334.91625977 C-92.71074802 340.70305192 -94.95459078 346.50101243 -97.19360352 352.30102539 C-97.62705078 353.41791748 -98.06049805 354.53480957 -98.50708008 355.68554688 C-98.90894531 356.72783447 -99.31081055 357.77012207 -99.72485352 358.84399414 C-100.0812793 359.76591553 -100.43770508 360.68783691 -100.80493164 361.63769531 C-101.81942736 364.33498199 -101.81942736 364.33498199 -102.69360352 368.11352539 C-116.22360352 368.11352539 -129.75360352 368.11352539 -143.69360352 368.11352539 C-144.69360352 366.11352539 -144.69360352 366.11352539 -143.92431641 363.64941406 C-143.50915771 362.62050049 -143.09399902 361.59158691 -142.66625977 360.53149414 C-142.20799805 359.38302002 -141.74973633 358.2345459 -141.27758789 357.05126953 C-140.90573364 356.1347612 -140.90573364 356.1347612 -140.52636719 355.19973755 C-139.48709516 352.63791553 -138.46466323 350.06948207 -137.44100952 347.50138855 C-136.92337627 346.20351294 -136.40483774 344.90599802 -135.88540649 343.60884094 C-133.76734812 338.31791678 -131.71107841 333.00597956 -129.69360352 327.67602539 C-129.37931396 326.8473999 -129.06502441 326.01877441 -128.74121094 325.16503906 C-128.08054466 323.42169211 -127.42048585 321.67811484 -126.76098633 319.93432617 C-125.59239033 316.84604663 -124.42057103 313.75900211 -123.24829102 310.67211914 C-119.29203906 300.25207989 -115.34040446 289.83034557 -111.40454102 279.40258789 C-104.96396198 262.34385979 -98.4725328 245.30613309 -91.9140625 228.2923584 C-87.14606325 215.92098806 -82.45032932 203.5249613 -77.81225586 191.10424805 C-71.74751326 174.89012826 -65.58611185 158.72397822 -59.1184082 142.66601562 C-55.28276974 133.13169227 -51.67349398 123.52702936 -48.14257812 113.8762207 C-44.3185153 103.43633758 -40.393009 93.03993918 -36.38360596 82.66992188 C-34.74680392 78.43619381 -33.11463898 74.20067932 -31.48266602 69.96508789 C-31.15817474 69.12306824 -30.83368347 68.28104858 -30.49935913 67.41351318 C-27.57716986 59.82426815 -24.69311041 52.22093169 -21.81860352 44.61352539 C-18.48704833 35.80466761 -15.1219002 27.0102265 -11.69360352 18.23852539 C-11.15050537 16.84730469 -11.15050537 16.84730469 -10.59643555 15.42797852 C-4.59747118 0.14130637 -4.59747118 0.14130637 0 0 Z " fill="#F8F8F8" transform="translate(441.693603515625,44.886474609375)"/>
<path d="M0 0 C12.87 0 25.74 0 39 0 C40.2077558 3.62326739 39.54311128 4.64146369 38 8 C37.67 8 37.34 8 37 8 C37 6.35 37 4.7 37 3 C29.08 3 21.16 3 13 3 C13 2.67 13 2.34 13 2 C8.71 1.67 4.42 1.34 0 1 C0 0.67 0 0.34 0 0 Z " fill="#878687" transform="translate(438,45)"/>
<path d="M0 0 C4.95 0 9.9 0 15 0 C14.67 0.66 14.34 1.32 14 2 C11.671875 2.34375 11.671875 2.34375 8.75 2.5 C4.73688269 2.71692526 1.67109864 3.33862689 -2 5 C-1.34 3.35 -0.68 1.7 0 0 Z " fill="#D0D0D0" transform="translate(437,46)"/>
<path d="M0 0 C-0.66 2.31 -1.32 4.62 -2 7 C-2.33 7 -2.66 7 -3 7 C-3 5.35 -3 3.7 -3 2 C-4.32 1.34 -5.64 0.68 -7 0 C-3.98968256 -0.93423645 -3.13349732 -1.04449911 0 0 Z " fill="#ACACAC" transform="translate(478,46)"/>
<path d="" fill="#2B2B2B" transform="translate(0,0)"/>
</svg>
